<svg xmlns="http://www.w3.org/2000/svg" width="128" height="128" id="main-coworkers-small" data-supported-dps="128x128">
  <path d="M64 0a64 64 0 0164 64H0A64 64 0 0164 0z" fill="#ffefea"/>
  <path fill="#fff" d="M5 8h16v19H5z"/>
  <path d="M20.5 8.5v18h-15v-18h15M21 8H5v19h16V8z" fill="#9db3c8"/>
  <path fill="#fbf1e2" d="M7.51 10.8h10.95V24H7.51z"/>
  <path d="M12.74 15.34c-.26-3.43-.59-4.09-3.64-4v-.5c3.51-.07 3.89 1 4.14 4.48z" fill="#65684e"/>
  <path d="M17.3 14.23c-1.39-.94-3.18-.17-4.72-.17-2.55-.27-5.08-.71-5 2.75.16 2.36.72 7.74 4.15 7 .44-.18.9-.6 1.33-.38a3.31 3.31 0 002.52.43c1.44-.53 1.93-2.18 2.43-3.85.65-2.14.56-4.49-.71-5.78z" fill="#f8c77e"/>
  <path d="M13 14c-.05-2.3 1.09-3.24 2.68-3.24C16.22 13.83 13 14 13 14z" fill="#8a8f6c"/>
  <path fill="#fafaf8" d="M29 9h22v12H29z"/>
  <path fill="#b4c6d8" d="M29 6h22v3H29z"/>
  <path d="M32.38 12l.81-.81a.27.27 0 00-.38-.38l-.81.81-.81-.81a.27.27 0 00-.38.38l.81.81-.81.81a.27.27 0 00.38.38l.81-.81.81.81a.27.27 0 10.38-.38zM36.38 12l.81-.81a.27.27 0 00-.38-.38l-.81.81-.81-.81a.27.27 0 00-.38.38l.81.81-.81.81a.27.27 0 00.38.38l.81-.81.81.81a.27.27 0 10.38-.38zM40.38 12l.81-.81a.27.27 0 00-.38-.38l-.81.81-.81-.81a.27.27 0 00-.38.38l.81.81-.81.81a.27.27 0 00.38.38l.81-.81.81.81a.27.27 0 10.38-.38zM32.38 16l.81-.81a.27.27 0 00-.38-.38l-.81.81-.81-.81a.27.27 0 00-.38.38l.81.81-.81.81a.27.27 0 00.38.38l.81-.81.81.81a.27.27 0 00.38-.38zM36.38 16l.81-.81a.27.27 0 00-.38-.38l-.81.81-.81-.81a.27.27 0 00-.38.38l.81.81-.81.81a.27.27 0 00.38.38l.81-.81.81.81a.27.27 0 00.38-.38z" fill="#56687a"/>
  <path d="M40.38 16l.81-.81a.27.27 0 00-.38-.38l-.81.81-.81-.81a.27.27 0 00-.38.38l.81.81-.81.81a.27.27 0 00.38.38l.81-.81.81.81a.27.27 0 00.38-.38z" fill="#f5987e"/>
  <path d="M44.38 12l.81-.81a.27.27 0 00-.38-.38l-.81.81-.81-.81a.27.27 0 00-.38.38l.81.81-.81.81a.27.27 0 00.38.38l.81-.81.81.81a.27.27 0 10.38-.38zM48.38 12l.81-.81a.27.27 0 00-.38-.38l-.81.81-.81-.81a.27.27 0 00-.38.38l.81.81-.81.81a.27.27 0 00.38.38l.81-.81.81.81a.27.27 0 10.38-.38z" fill="#56687a"/>
  <path d="M58.44 89.61l-7.79-.21a22.31 22.31 0 00-.4 5.42 37.07 37.07 0 00.29 4.34c.79 3.91 2.14 7.75 2.39 11.76.13 2 .48 8 .5 8.7.51-.06 12.48-.26 12.48-.26s.41-1-.9-1.7a11 11 0 00-2.86-.85C57.71 116 58 114 58 112.87c-.28-4.37.48-23.26.48-23.26z" fill="#764436" fill-rule="evenodd"/>
  <path d="M63.8 117a4.22 4.22 0 01-2 .67 8.62 8.62 0 01-6-1.11 6.58 6.58 0 00-2.46-.7 4 4 0 00-.5 2.43A6.46 6.46 0 0053 120h13a2.11 2.11 0 00-.77-2.46 8.23 8.23 0 00-1.43-.5z" fill="#65684e" fill-rule="evenodd"/>
  <path d="M73 81l-10 2.37c.8 4.14 2.31 7.88.53 11.55s-1.5 9.17-3 12.89c-.75 1.8-3.12 7.39-3.4 8 .49.17 11.32 5.28 11.32 5.28s.82-.74-.07-1.92a22.49 22.49 0 00-1.9-2c-3.12-3.16-1.9-5.79-1.46-6.84.78-1.89 5-9.07 7.28-13.48C74 93.42 74.87 85.08 73 81z" fill="#895042" fill-rule="evenodd"/>
  <path d="M67.42 118.21c-4.85.6-7-6.84-8.57-6.61a5.53 5.53 0 00-1.85 3.6c-.08.22 0 .74.71 1.11 2.49 1.4 11 5.59 11 5.59.78-.76.5-2.73-1.27-3.69z" fill="#8a8f6c" fill-rule="evenodd"/>
  <path d="M68.13 45.92L75 46v20h-5l-1.87-20.08z" fill="#965748" fill-rule="evenodd"/>
  <path d="M47.59 44.41L45.47 94h32.07C75 73.38 72.17 63.77 72 57V46h3s.43-12-5-12H53c-3.69 0-5.35 5.36-5.41 10.41z" fill="#ffbfc8"/>
  <path d="M71.75 25.53c-.84-9-15-7-13.48 1.87.82 3 1.73 4.59-.17 6.6a2.49 2.49 0 00-.67 0 .71.71 0 00-.55 1.17l2.73 3.65.2.16a4.29 4.29 0 006.31-1.24l.37-.64A1.42 1.42 0 0066 35h2c1.2 0 1.07-1 1.67-2.19.1-.32.22-.52.43-.53.5 0 .79-.2.82-.56.08-.94-.28-1.54.1-2.44a10.47 10.47 0 00.73-3.75z" fill="#764436"/>
  <path d="M69.21 21c-3.61-2.85-9.93-.56-10.85 3.83-.53 2.06.5 4.16.86 6 2 .64 4.17-.59 3.89-3.37a1.61 1.61 0 013.11-.58c.6 1.08 1.62.51 1.79-1.17.14-1.25 2.27-.36 3.29-.27 1.4.12 1.49-1.45 1.49-1.45A30.39 30.39 0 0069.21 21z" fill="#0d2034"/>
  <path d="M67.92 15.75c-2.29-.13-2.59 1.42-5.63 1.79s-6.4 3.7-3.59 11.29c4.81-2.94 8.62-4.53 12.67-4.35 2.72.18 2.5-3.77 0-4.19a2.1 2.1 0 00.47-2.46c-.48-1.51-1.63-1.95-3.92-2.08z" fill="#5f9b41"/>
  <path fill="#fff" d="M87.88 68.64l4.11-15.13H70.72l-4.11 15.13h21.27z"/>
  <path d="M70.38 53H93l-4.46 16H66l4.42-16zm.67 1l-3.87 14.2h20.37L91.42 54z" fill="#424057"/>
  <path d="M56 69a2.57 2.57 0 01.4-1.41 1.21 1.21 0 011-.59h31.06v2z" fill="#424057"/>
  <path fill="#88889b" d="M71.81 59.99h13.73l.27-1H72.09l-.28 1zM70.97 62.01h9.72l.28-1h-9.71l-.29 1z"/>
  <path fill="#70b5f9" d="M72.46 58h8.6l.6-2h-8.6l-.6 2z"/>
  <path d="M68.47 64.84H72a2 2 0 011.7 1L75 68v1h-3.92l-16-6.58C52.25 61.33 51.86 57 51.86 57H58z" fill="#965748"/>
  <path fill="#e0a675" fill-rule="evenodd" d="M117 128V72H3l-.1 56H0V69h120v59h-3z"/>
  <rect x="110.01" y="90" width=".99" height="38" rx=".49" fill="#94b7c6"/>
  <rect x="119.79" y="89.72" width="1" height="38" rx=".5" transform="rotate(-10 120.292 108.711)" fill="#94b7c6"/>
  <rect x="99.34" y="89.72" width="1" height="38" rx=".5" transform="rotate(-170 99.838 108.723)" fill="#94b7c6"/>
  <path d="M119.45 92h-18.9a4 4 0 110-8h18.9a4 4 0 110 8z" fill="#ac7b76"/>
  <path d="M105.84 68.81L98 64.27c-.6-.39-1.74 0-2.86-.33S93.23 62 93 61.53c0 0 2.39-1.29 2.56-1.37s.61-.47.46-.8" fill="#f0c59f"/>
  <path fill="#d3614a" d="M89 53h7v10h-7z"/>
  <path d="M96 63c-1.31-.66.21-3 0-3.64-.12-.25-.38-.77-.51-1L95 58.2a.48.48 0 01.27-.93c.32.11.92.15 1.11.48l1.43 2 9.36 4.25 6.19 4.2-2.16 1a5.41 5.41 0 01-5.36-.38S98 64 96 63z" fill="#f0c59f"/>
  <path d="M90.43 55.07a2.68 2.68 0 00-1.43.41v4.39a2.68 2.68 0 001.43.41 2.61 2.61 0 100-5.21z" fill="#b24020"/>
  <path d="M96.89 61a5.46 5.46 0 01-2.24-.59l.42-.9c1.18.55 2.07.64 2.65.27a2.66 2.66 0 00.89-2.21 2 2 0 00-.55-1.67c-.53-.4-1.53-.41-2.91 0l-.27-1c1.74-.48 3-.41 3.79.21a3 3 0 01.94 2.47 3.67 3.67 0 01-1.35 3 2.51 2.51 0 01-1.37.42z" fill="#d3614a"/>
  <path d="M90.14 102.69c-.48 2.18-.79 3.8-1.52 7-.36 1.61-.58 3.72-.58 3.72a59 59 0 01-6.28-1.14 69.84 69.84 0 01-7.5-2.79 1.36 1.36 0 011.45-1.47 17.26 17.26 0 013.86.43c5 1.11 4-5.86 4.31-7.26l6.26 1.47z" fill="#f5cea9" fill-rule="evenodd"/>
  <path d="M77.07 108.07a4.09 4.09 0 001.67 1.65c3.13 1.88 4 1.88 6.76 1.94a22.6 22.6 0 002.78-.06s-.13 1.85-.26 2.43c-.25 1.11-1 1.26-1.21 1.24-.51-.3-13.26-5.62-13.26-5.62a1.92 1.92 0 011.86-1.65 8.68 8.68 0 011.66.07z" fill="#592226" fill-rule="evenodd"/>
  <path d="M122.1 78.94c-3.06 3-6.11 4.56-12 4.81l-13.86-.82-6.94 23.81c-1.39-.33-6.16-1.49-7.78-1.82a101.09 101.09 0 011.8-17.82c1-6.19 1.75-11.16 5.4-11.89 2.54-.51 13.06-1.43 17.35-1.54 2.09-.06 2.23-.36 2.23-.36l11.4-.21 2.4 5.84z" fill="#235899"/>
  <path d="M103.62 105c.4 2.2.75 3.82 1.33 7.08.29 1.63.9 3.66.9 3.66a57.72 57.72 0 01-6.23 1.37 67.93 67.93 0 01-8 .34 1.37 1.37 0 01.77-1.92 17.41 17.41 0 013.72-1.1c5-.9 1.38-6.93 1.17-8.36l6.34-1.07z" fill="#f5cea9" fill-rule="evenodd"/>
  <path d="M93.66 115.05a4.05 4.05 0 002.17.88c3.61.53 4.45.17 7-.83a22.32 22.32 0 002.53-1.13s.6 1.76.7 2.34c.2 1.13-.44 1.55-.63 1.61-.59-.08-14.41 0-14.41 0a1.93 1.93 0 011.09-2.24 8.33 8.33 0 011.56-.58z" fill="#592226" fill-rule="evenodd"/>
  <path d="M125 77c-1.65 4-3 7.37-7.79 7.37l-15.6.08 2.82 24.64c-1.42.23-6.26 1-7.88 1.33a100.92 100.92 0 01-5.25-17.13c-1.44-6.1-2.71-11 .38-13C93.82 78.8 105 73 105 73h19z" fill="#2a67b2"/>
  <path d="M117.46 42.36c-4.75-2.6-3.82-4.2-3-8.5a7 7 0 10-13.6.5c.57 1.48.18 2.86.43 3.47s1.14.16 1.54 1.37c.79 2.12 1 2.14 3.37 2s1.91 5 1.91 5z" fill="#f5cea9"/>
  <path d="M117.08 40.36L111.44 42a4.22 4.22 0 00-2.89 2.86A59.64 59.64 0 01106 52a17 17 0 00-1 6v15c0 1 21 7.12 21 4-.07-8-2-25.79-3.48-29.1-2.16-5-4.15-5.27-5.44-7.54z" fill="#74899f"/>
  <path d="M120.17 38.5c-1.25-1.19-2.43-1.18-2.67-4.5-.42-5.67-4.23-5.95-4.67-6.83-1.65-3.11-2.62-1.38-4.79-2.46a4.5 4.5 0 00-4.31.68 7.51 7.51 0 01-2.56.85c-2.45.48-4.62 4.54-2.43 6.4a1.84 1.84 0 002.62-.84c.22-.58.52-1.25 1.21-1.37a1.07 1.07 0 011.05.36c.19.25.25.59.48.79.45.26 1 .45 1 1.09a5 5 0 01-.07.85c-.11.84 1.4 1.24 1.39.1a1.67 1.67 0 013.29-.43c-.59 2.89-2 5.94 1.16 6.81.89.44 2.33 1 2.12 2.75.25 2.3 3.82 2.13 5.42 1.83 3.59-.66 3.42-4.41 1.76-6.08z" fill="#0d2034"/>
  <path d="M110 62l-4.85 20.38-3.38.4a1.72 1.72 0 00-1.47.88 3.22 3.22 0 000 2.08c.24 1.18 1.15 2 1.3 1.32.38-1.66 1.51-1.74 1.51-1.74l4.09-.69a2.16 2.16 0 001.65-1.31C110.78 78.71 118 62 118 62z" fill="#f5cea9"/>
  <path d="M47.71 52.57a10 10 0 002.85-1.75l3.43-2a.38.38 0 01.5.53 4.06 4.06 0 01-1.1 1 .24.24 0 00.11.43l3.26.34a.42.42 0 01.37.39c0 .6-.93.45-1.58.59.07.28 0 .63-.29.72l-.3.1a.78.78 0 01-.16.83c-.47.38-1.15 1.31-1.83 1.27l-2.8.12A6.34 6.34 0 0048 56" fill="#965748"/>
  <path d="M28.42 105.17l-1.27 6.51L35 113v-8l-6.58.17z" fill="#9ac6ea"/>
  <path d="M26.42 113.76C26 116 27.52 116 28 116h13l.34-.31A3.15 3.15 0 0042 113a2.29 2.29 0 00-2-1c-2 0-4.79-.12-6.2-2.3a9.14 9.14 0 00-1.8 1.12 3 3 0 01-3.15.33 12.94 12.94 0 01-1.18-.68.51.51 0 00-.78.36c-.13.93-.34 2.38-.47 2.93z" fill="#211f1d"/>
  <path fill="#071521" d="M38 108H25l-1-29h14v29z"/>
  <path d="M31.14 71.6S46.61 78 47.42 84.86C48.13 90.86 45 112 45 112H35s-2.75-14.17-3.5-21.33a4.8 4.8 0 00-4-4.53c-3.87-.5-4.66 0-9.48-.61a11.94 11.94 0 01-9.94-8.64l23-5.29z" fill="#0d2034"/>
  <path d="M18.33 42.12h6.6A7.14 7.14 0 0130.65 45l8 10.72 9.26-3.22 2.56 7-8.92 3.44A7.74 7.74 0 0134 61.78l-4.54-3.6 3.71 14.29C23 75.55 9.45 80 9.45 80a6.61 6.61 0 01-2.26-2.8C5.66 74 6 69.08 6 69.08l-4.58-6.9a8.82 8.82 0 01.48-10.33l4.88-6.15a9.49 9.49 0 017.11-3.58z" fill="#f58b6f"/>
  <path d="M30.24 32.22c1.27-8.67-11-11.49-13.62-3.13a6.86 6.86 0 000 4c1.25 3.46-.52 6.2-3.24 8l10.88 3.34S23 40 25.47 39.88s2.73-.47 3.31-2.65c.27-1.25 1.18-.81 1.38-1.52s-.34-2.2.08-3.49z" fill="#965748"/>
  <path d="M28.87 27a.44.44 0 00.06-.61C25.42 22 17.86 23.48 16.38 29c-.67 1.79-.05 3.56.28 5.27A1.93 1.93 0 0018 35.83l.56.16c1.75.51 3.22-.91 3.19-3.14a1.73 1.73 0 113.43.25l-.4 3 1.71.5.62-4.13.05-.34a7.25 7.25 0 00-1-4.81 2.62 2.62 0 002.71-.32z" fill="#61392d"/>
  <path fill="#f68b6f" d="M24.96 44.99l-.74-4.16-9.7-2.32-3.64 5.16 12.65 2.06 1.43-.74z"/>
  <rect x="24.01" y="90" width=".99" height="38" rx=".49" fill="#94b7c6"/>
  <rect x="33.79" y="89.72" width="1" height="38" rx=".5" transform="matrix(.98 -.17 .17 .98 -18.36 7.61)" fill="#94b7c6"/>
  <rect x="13.34" y="89.72" width="1" height="38" rx=".5" transform="rotate(-170 13.84 108.72)" fill="#94b7c6"/>
  <path d="M33.45 92h-18.9a4 4 0 110-8h18.9a4 4 0 110 8z" fill="#ac7b76"/>
  <path d="M37 112l-.46 3.6L43 118s-.14-5.26 0-6z" fill="#9ac6ea"/>
  <path d="M36.5 120.13l13.59 3.23.17-.55A2.2 2.2 0 0049 120c-1.94-.79-5.1-3.49-6-6a3.73 3.73 0 00-1.9 1.07 2.61 2.61 0 01-3.2.43 10.86 10.86 0 01-1.31-.91 5.6 5.6 0 00-1.48 3.65 1.74 1.74 0 001.37 1.88z" fill="#211f1d"/>
</svg>
